<?xml version="1.0" encoding="utf-8"?>
<!-- Generator: Adobe Illustrator 20.1.0, SVG Export Plug-In . SVG Version: 6.00 Build 0)  -->
<svg version="1.1" xmlns="http://www.w3.org/2000/svg" xmlns:xlink="http://www.w3.org/1999/xlink" x="0px" y="0px"
	 viewBox="0 0 117.92 137.341" enable-background="new 0 0 117.92 137.341" xml:space="preserve">
<g id="Background">
</g>
<g id="Guides" display="none">
</g>
<g id="Foreground" display="none">
</g>
<g id="Layer_1">
	<g>
		<g>
			<rect y="18.397" fill="#070F41" width="117.92" height="97.229"/>
			<g>
				<path fill-rule="evenodd" clip-rule="evenodd" fill="#FFB110" d="M9.308,99.863c5.976,0,10.291-1.261,10.291-7.171
					c0-3.751-2.49-5.609-7.105-5.609H4.328v22.772c0.829-0.066,1.659-0.166,2.489-0.166c0.83,0,1.66,0.1,2.49,0.166V99.863z
					 M9.308,88.875h2.058c1.727,0,3.088,1.76,3.088,4.415c0,2.025-0.797,3.918-2.955,4.516c-0.697,0.166-1.461,0.199-2.19,0.232
					V88.875z"/>
				<path fill-rule="evenodd" clip-rule="evenodd" fill="#FFB110" d="M42.681,102.685c-2.623-5.211-5.245-10.391-7.636-15.602
					c-0.465,0.066-0.93,0.166-1.395,0.166c-0.465,0-0.896-0.1-1.361-0.166c-1.128,8.398-2.19,16.1-3.386,22.772
					c0.531-0.066,0.996-0.166,1.527-0.166c0.531,0,1.029,0.1,1.561,0.166c0.1-4.647,0.63-9.262,1.394-15.104
					c2.523,5.212,5.145,10.357,7.27,14.938c0.432-0.1,0.83-0.067,1.262,0c2.356-5.146,4.847-10.225,7.369-15.304
					c0.498,5.112,1.162,10.191,1.428,15.47c0.93-0.066,1.76-0.166,2.688-0.166c0.93,0,1.826,0.1,2.756,0.166
					c-1.129-6.606-1.893-13.843-2.922-22.772c-0.464,0.066-0.962,0.166-1.427,0.166c-0.465,0-0.93-0.1-1.395-0.166
					C47.892,92.759,45.07,97.972,42.681,102.685z"/>
				<path fill-rule="evenodd" clip-rule="evenodd" fill="#FFB110" d="M88.17,99.598c-0.829,0.066-1.659,0.166-2.489,0.166
					s-1.66-0.1-2.489-0.166v7.769c-0.797,0.465-1.992,0.93-3.652,0.93c-5.046,0-7.967-3.453-7.967-9.23
					c0-5.577,2.722-10.589,8.266-10.589c2.623,0,5.013,1.161,6.54,3.386h0.465c0.133-1.129,0.465-2.291,0.93-3.353
					c-2.49-1.428-5.145-2.025-8.001-2.025c-7.668,0-13.71,4.216-13.71,12.482c0,7.801,6.241,11.319,13.245,11.319
					c2.922,0,5.876-0.664,8.863-1.493V99.598z"/>
			</g>
		</g>
		<g>
			<rect x="88.44" y="9.579" fill="#070F41" width="29.481" height="9.922"/>
			<rect y="9.579" fill="#98104F" width="30.047" height="9.922"/>
			<rect x="29.479" y="9.579" fill="#52006A" width="30.047" height="9.922"/>
			<rect x="58.96" y="9.579" fill="#120C80" width="29.764" height="9.922"/>
			<rect x="87.873" fill="#019069" width="30.047" height="9.75"/>
			<rect fill="#FFB110" width="30.047" height="9.75"/>
			<rect x="29.479" fill="#D17602" width="30.047" height="9.75"/>
			<rect x="58.96" fill="#F13210" width="29.764" height="9.75"/>
		</g>
		<g>
			<rect y="117.751" width="117.92" height="19.59"/>
			<g>
				<path fill-rule="evenodd" clip-rule="evenodd" fill="#FFFFFF" d="M9.894,125.325c0.073-0.27,0.146-0.54,0.239-0.8
					c-0.229-0.145-1.102-0.602-2.649-0.602c-2.307,0-4.052,1.277-4.052,3.709c0,2.109,1.205,3.678,3.833,3.678
					c0.967,0,1.923-0.166,2.826-0.478v-2.94c-0.166,0.01-0.312,0.031-0.457,0.031c-0.155,0-0.311-0.022-0.457-0.031v2.67
					c-0.477,0.25-1.06,0.354-1.621,0.354c-2.047,0-3.106-1.278-3.106-3.335c0-2.099,1.226-3.263,2.992-3.263
					c0.884,0,1.757,0.343,2.338,1.008H9.894z"/>
				<path fill-rule="evenodd" clip-rule="evenodd" fill="#FFFFFF" d="M25,124.463c0.436-0.021,1.142-0.052,1.527,0.011
					c0.779,0.124,1.143,0.592,1.143,1.309c0,0.811-0.571,1.33-1.33,1.486c-0.529,0.103-1.194,0.063-1.34,0.052V124.463z
					 M24.086,131.185c0.145-0.01,0.301-0.031,0.457-0.031c0.145,0,0.291,0.021,0.457,0.031v-3.47h0.394l0.832,0.977l1.226,1.59
					c0.218,0.291,0.426,0.582,0.654,0.903c0.188-0.01,0.396-0.031,0.593-0.031c0.197,0,0.384,0.021,0.602,0.031l-0.198-0.26
					l-0.498-0.581l-2.141-2.712c1.05-0.188,2.13-0.77,2.13-1.975c0-1.049-0.706-1.578-2.307-1.578h-2.202V131.185z"/>
				<path fill-rule="evenodd" clip-rule="evenodd" fill="#FFFFFF" d="M48.999,127.56c0.072,1.143-0.718,3.407-2.909,3.407
					c-1.549,0-2.837-1.102-2.837-3.21c0-2.109,1.102-3.491,2.93-3.491c0.831,0,1.642,0.353,2.161,1.008
					C48.885,125.97,48.999,126.696,48.999,127.56z M46.059,131.31c2.316,0,3.958-1.517,3.958-3.834c0-2.493-1.984-3.553-3.938-3.553
					c-2.15,0-3.845,1.433-3.845,3.709C42.234,129.855,43.762,131.31,46.059,131.31z"/>
				<path fill-rule="evenodd" clip-rule="evenodd" fill="#FFFFFF" d="M64.641,124.079c-0.166,0.01-0.313,0.03-0.457,0.03
					c-0.156,0-0.313-0.02-0.457-0.03v4.155c0.01,0.831,0.093,1.756,0.748,2.349c0.54,0.488,1.226,0.727,2.254,0.727
					c1.829,0,3.034-1.039,3.034-3.096v-4.135c-0.104,0.01-0.197,0.03-0.291,0.03c-0.104,0-0.197-0.02-0.291-0.03v3.875
					c0,1.683-0.592,2.878-2.244,2.878c-1.776,0-2.296-0.946-2.296-2.774V124.079z"/>
				<path fill-rule="evenodd" clip-rule="evenodd" fill="#FFFFFF" d="M84.868,127.923c0.26,0,0.935,0.072,1.402-0.022
					c1.465-0.291,2.224-0.861,2.224-2.119c0-1.257-0.665-1.703-2.681-1.703h-1.86v7.106c0.146-0.01,0.302-0.031,0.457-0.031
					c0.146,0,0.291,0.021,0.458,0.031V127.923z M84.868,124.483c0.312-0.02,1.049-0.031,1.496,0.011
					c0.82,0.073,1.174,0.634,1.174,1.341c0,0.924-0.602,1.578-1.642,1.683c-0.354,0.031-0.768,0.031-1.028,0V124.483z"/>
			</g>
		</g>
	</g>
</g>
</svg>
