<svg xmlns="http://www.w3.org/2000/svg" viewBox="0 0 636.46 146.13"><defs><style>.cls-1{fill:#fff;}</style></defs><title>Electrolux-logo-white</title><g id="Layer_2" data-name="Layer 2"><g id="Layer_1-2" data-name="Layer 1"><path class="cls-1" d="M0,146.13H146.11V0H0Zm93.65-135A65.13,65.13,0,0,1,138.21,73c.07,28.46-18.22,52.88-44.56,61.9ZM73,7.85A73.22,73.22,0,0,1,86.81,9.3c0,33.1-32,60.35-65.06,60.35l-13.82,0C10.2,35.69,38.28,7.85,73,7.85ZM21.76,76.54c33,0,65,27.22,65,60.29A73.68,73.68,0,0,1,73,138.3c-34.77,0-63.8-28-65.11-61.76Z"/><path class="cls-1" d="M195,85.9V76.69h30.4V65H195V47.85h32.35V36.14H182.58V85.37c0,12.44,5.3,21,17.74,22.71a3.31,3.31,0,0,0,.72.11h.23a35.54,35.54,0,0,0,3.94.24h23V96.73H205.31C201.35,96.73,195,94.78,195,85.9Z"/><polygon class="cls-1" points="237.07 70.3 237.07 108.44 249.53 108.44 249.53 70.05 249.53 36.13 237.07 36.13 237.07 70.3"/><path class="cls-1" d="M285.22,54.5c-15.74,0-27.51,10.84-27.51,27.72v.42c0,16.47,11.36,27.1,27.83,27.1,7.92,0,15.32-2.19,22.09-9.38l-7.5-7.3c-4,4-7.82,6-14.18,6-9.27,0-15.42-5.42-15.84-13.76H311c.21-2.08.21-4.38.21-4.38C311.18,66.27,300.86,54.5,285.22,54.5Zm-14.8,22.1c.52-6.36,7-11.46,14.8-11.46,7.3,0,13.24,5.21,13.24,11.46Z"/><path class="cls-1" d="M346.16,65.65a17.61,17.61,0,0,1,13.34,5.73l7.71-8a27.62,27.62,0,0,0-21.05-9.07c-15.84,0-28.56,11.78-28.56,27.83s12.71,27.83,28.56,27.83a27.62,27.62,0,0,0,21.05-9.07l-7.71-8a17.61,17.61,0,0,1-13.34,5.73c-9.17,0-16.15-7-16.15-16.47S337,65.65,346.16,65.65Z"/><path class="cls-1" d="M387.41,85.92h0V67.46h11.33V56.15H387.42v-20H375V86.66h0c.36,11.75,5.7,19.75,17.71,21.44a3.31,3.31,0,0,0,.72.11h.23a35.54,35.54,0,0,0,3.94.24h1.32l0-11.7H397.7C393.74,96.74,387.41,94.79,387.41,85.92Z"/><path class="cls-1" d="M421.55,63.93V56.15H409.2v52.29h12.35V80.95c0-8.61,5.5-14,14.11-14a24.86,24.86,0,0,1,5.19.52v-12a26.78,26.78,0,0,0-3.73-.31C429.64,55.11,424,58.54,421.55,63.93Z"/><path class="cls-1" d="M471.29,54.59c-15.88,0-28.54,12-28.54,27.7S455.41,110,471.29,110s28.53-12,28.53-27.7S487.06,54.59,471.29,54.59Zm0,44.1A16.4,16.4,0,1,1,487.47,82.3,16,16,0,0,1,471.29,98.69Z"/><polygon class="cls-1" points="507.48 69.05 507.48 108.44 519.94 108.44 519.94 69.55 519.94 36.13 507.48 36.13 507.48 69.05"/><path class="cls-1" d="M564.84,86.55c0,8.3-4.88,11.83-11.42,11.83S542,94.85,542,86.66V56.15H529.46V87.69c0,14.94,10.89,22.1,23.87,22.1s24.07-7.26,24.07-22.41V56.15H564.84Z"/><polygon class="cls-1" points="624.5 91.72 616.65 80.74 626.37 67.5 634.7 56.15 621.11 56.15 609.8 71.82 598.38 56.15 584.9 56.15 592.63 66.73 602.95 80.84 592.14 95.91 583.13 108.44 596.52 108.44 609.8 89.97 623.08 108.44 636.46 108.44 624.5 91.72"/></g></g></svg>